<?xml version="1.0" encoding="utf-8"?>
<!-- Generator: Adobe Illustrator 21.0.0, SVG Export Plug-In . SVG Version: 6.00 Build 0)  -->
<svg version="1.1" id="Layer_1" xmlns="http://www.w3.org/2000/svg" xmlns:xlink="http://www.w3.org/1999/xlink" x="0px" y="0px"
	 viewBox="0 0 200 200" style="enable-background:new 0 0 200 200;" xml:space="preserve">
<style type="text/css">
	.st0{fill:url(#Shape_3_);}
	.st1{fill:url(#Shape_4_);}
	.st2{fill:url(#Shape_5_);}
	.st3{fill:url(#Combined-Shape_1_);}
</style>
<title>Group 28 Copy 5</title>
<desc>Created with Sketch.</desc>
<g id="Page-1">
	<g id="logo" transform="translate(-20.000000, -20.000000)">
		<g id="Group-28-Copy-5" transform="translate(20.000000, 20.000000)">
			<g id="Group-27-Copy-3">
				<g id="Group-25">
					<g id="_x32_">
						
							<linearGradient id="Shape_3_" gradientUnits="userSpaceOnUse" x1="-757.3718" y1="745.9092" x2="-757.0307" y2="745.6291" gradientTransform="matrix(147.7263 0 0 -198.7057 111952.8125 148284.2344)">
							<stop  offset="0" style="stop-color:#4285EB"/>
							<stop  offset="1" style="stop-color:#2EC7FF"/>
						</linearGradient>
						<path id="Shape" class="st0" d="M93.7,29.1L29,93.7c-3.5,3.5-3.5,9.1,0,12.6l64.7,64.6c3.5,3.5,9.1,3.5,12.6,0l27.1-27.1
							c3.1-3.1,3.1-8.2,0-11.3c-3.1-3.1-8.2-3.1-11.3,0l-20.6,20.5c-0.9,0.9-2.2,0.9-3,0l-51.6-51.6c-0.9-0.9-0.9-2.2,0-3l51.6-51.6
							c0.9-0.9,2.2-0.9,3,0l20.6,20.5c3.1,3.1,8.2,3.1,11.3,0c3.1-3.1,3.1-8.2,0-11.3L106.3,29C102.8,25.6,97.2,25.6,93.7,29.1z"/>
						
							<linearGradient id="Shape_4_" gradientUnits="userSpaceOnUse" x1="-757.2219" y1="746.1282" x2="-757.3373" y2="745.3256" gradientTransform="matrix(147.7263 0 0 -198.7057 111952.8125 148284.2344)">
							<stop  offset="0" style="stop-color:#29CDFF"/>
							<stop  offset="0.3786" style="stop-color:#148EFF"/>
							<stop  offset="1" style="stop-color:#0A60FF"/>
						</linearGradient>
						<path id="Shape_1_" class="st1" d="M93.7,29.1L29,93.7c-3.5,3.5-3.5,9.1,0,12.6l64.7,64.6c3.5,3.5,9.1,3.5,12.6,0l27.1-27.1
							c3.1-3.1,3.1-8.2,0-11.3c-3.1-3.1-8.2-3.1-11.3,0l-20.6,20.5c-0.9,0.9-2.2,0.9-3,0l-51.6-51.6c-0.9-0.9-0.9-2.2,0-3l51.6-51.6
							c2.2-1.9,5.7-5.6,10.8-6.5c3.8-0.7,8,0.8,12.6,4.3c-3-3-8.3-8.3-15.7-15.6C102.8,25.6,97.2,25.6,93.7,29.1z"/>
					</g>
					
						<linearGradient id="Shape_5_" gradientUnits="userSpaceOnUse" x1="-747.2533" y1="741.9066" x2="-747.6453" y2="740.942" gradientTransform="matrix(49.2049 0 0 -77.4363 36930.625 57514.3555)">
						<stop  offset="0" style="stop-color:#FA816E"/>
						<stop  offset="0.4147" style="stop-color:#F74A5C"/>
						<stop  offset="1" style="stop-color:#F51D2C"/>
					</linearGradient>
					<path id="Shape_2_" class="st2" d="M139.7,126.5c3.1,3.1,8.2,3.1,11.3,0l20-20c3.5-3.5,3.5-9.1,0-12.6l-20.2-20.1
						c-3.1-3.1-8.2-3.1-11.3,0c-3.1,3.1-3.1,8.2,0,11.3l13.6,13.6c0.9,0.9,0.9,2.2,0,3l-13.4,13.4
						C136.6,118.4,136.6,123.4,139.7,126.5z"/>
				</g>
				
					<linearGradient id="Combined-Shape_1_" gradientUnits="userSpaceOnUse" x1="-746.1816" y1="737.5321" x2="-746.4605" y2="736.4175" gradientTransform="matrix(47.2004 0 0 -47.1616 35327.8125 34853.8711)">
					<stop  offset="0" style="stop-color:#FA8E7D"/>
					<stop  offset="0.5126" style="stop-color:#F74A5C"/>
					<stop  offset="1" style="stop-color:#F51D2C"/>
				</linearGradient>
				<ellipse id="Combined-Shape" class="st3" cx="100.3" cy="100.3" rx="17.5" ry="17.4"/>
			</g>
		</g>
	</g>
</g>
</svg>
